<svg width="372" height="380" viewBox="0 0 372 380" fill="none" xmlns="http://www.w3.org/2000/svg">
<g opacity="0.24" filter="url(#filter0_f_2286_34243)">
<ellipse cx="186" cy="190" rx="117" ry="121" fill="#004A98"/>
</g>
<path d="M137.45 226.222L184.182 299.439L232.487 226.222L184.181 75.0002L137.45 226.222Z" fill="#004275"/>
<path d="M253.556 173.238L250.59 213.449L288.845 199.724L312.874 130.109L253.556 173.238Z" fill="#004275"/>
<path d="M277.822 232.864L253.198 242.581L272.234 261.38L320.256 255.777L277.822 232.864Z" fill="#004275"/>
<path d="M96.8844 232.864L121.508 242.581L102.472 261.38L54.4498 255.777L96.8844 232.864Z" fill="#004275"/>
<path d="M116.446 173.238L119.412 213.449L81.1562 199.724L57.1271 130.109L116.446 173.238Z" fill="#004275"/>
<path d="M156.438 208.702L185.149 253.26L214.499 208.912L184.655 116.988L156.438 208.702Z" fill="#007AC1"/>
<path d="M265.482 172.024L263.778 196.571L286.983 188.283L301.412 145.832L265.482 172.024Z" fill="#007AC1"/>
<path d="M281.95 239.592L266.949 245.587L278.474 257.001L307.694 253.451L281.95 239.592Z" fill="#007AC1"/>
<path d="M92.7556 239.592L107.757 245.587L96.2322 257.001L67.0123 253.451L92.7556 239.592Z" fill="#007AC1"/>
<path d="M104.526 172.024L106.231 196.571L83.0251 188.283L68.5967 145.832L104.526 172.024Z" fill="#007AC1"/>
<path d="M153.23 252.824L184.3 298.786L216.151 252.823L184.999 156.721L153.23 252.824Z" fill="#0B89CD"/>
<path d="M253.092 188.59L251.388 213.137L274.593 204.849L289.021 162.398L253.092 188.59Z" fill="#0B89CD"/>
<path d="M268.628 236.973L253.627 242.968L265.152 254.382L294.371 250.832L268.628 236.973Z" fill="#0B89CD"/>
<path d="M106.1 236.973L121.101 242.968L109.576 254.382L80.3566 250.832L106.1 236.973Z" fill="#0B89CD"/>
<path d="M116.898 188.59L118.603 213.137L95.3971 204.849L80.9688 162.398L116.898 188.59Z" fill="#0B89CD"/>
<path d="M204.775 223.592L185.143 253.259L165.722 223.117L184.648 161.597L204.775 223.592Z" fill="#40CCFF"/>
<path d="M279.31 191.022L263.778 196.57L264.93 179.973L289.039 162.398L279.31 191.022Z" fill="#40CCFF"/>
<path d="M274.672 253.223L266.962 245.587L277.102 241.534L294.369 250.831L274.672 253.223Z" fill="#40CCFF"/>
<path d="M100.033 253.224L107.745 245.587L97.603 241.535L80.3341 250.831L100.033 253.224Z" fill="#40CCFF"/>
<path d="M90.6984 191.023L106.23 196.571L105.078 179.973L80.969 162.398L90.6984 191.023Z" fill="#40CCFF"/>
<defs>
<filter id="filter0_f_2286_34243" x="0.90049" y="0.900002" width="370.2" height="378.2" filterUnits="userSpaceOnUse" color-interpolation-filters="sRGB">
<feFlood flood-opacity="0" result="BackgroundImageFix"/>
<feBlend mode="normal" in="SourceGraphic" in2="BackgroundImageFix" result="shape"/>
<feGaussianBlur stdDeviation="34.05" result="effect1_foregroundBlur_2286_34243"/>
</filter>
</defs>
</svg>
